<?xml version="1.0" standalone="no"?>
<!DOCTYPE svg PUBLIC "-//W3C//DTD SVG 20010904//EN"
 "http://www.w3.org/TR/2001/REC-SVG-20010904/DTD/svg10.dtd">
<svg version="1.0" xmlns="http://www.w3.org/2000/svg"
 width="1080.000000pt" height="1080.000000pt" viewBox="0 0 1080.000000 1080.000000"
 preserveAspectRatio="xMidYMid meet">

<g transform="translate(0.000000,1080.000000) scale(0.100000,-0.100000)"
fill="#000000" stroke="none">
<path d="M3807 7829 c7 -7 15 -10 18 -7 3 3 -2 9 -12 12 -14 6 -15 5 -6 -5z"/>
<path d="M4016 7551 c-4 -5 3 -7 14 -4 23 6 26 13 6 13 -8 0 -17 -4 -20 -9z"/>
<path d="M4114 7339 c-6 -11 31 -48 49 -49 17 0 5 28 -14 33 -12 3 -18 10 -14
16 3 6 2 11 -4 11 -5 0 -13 -5 -17 -11z"/>
<path d="M4093 7278 c5 -41 33 -98 49 -98 9 0 9 3 0 12 -14 14 -16 28 -3 28 5
0 13 -9 16 -20 7 -23 35 -27 35 -6 0 8 -4 26 -10 40 -10 28 -2 34 19 14 11
-11 13 -10 9 2 -3 10 -18 15 -45 16 -47 1 -66 11 -59 30 3 8 1 14 -5 14 -5 0
-8 -15 -6 -32z"/>
<path d="M4120 7290 c0 -5 5 -10 10 -10 6 0 10 5 10 10 0 6 -4 10 -10 10 -5 0
-10 -4 -10 -10z"/>
<path d="M4335 7220 c3 -5 8 -10 11 -10 2 0 4 5 4 10 0 6 -5 10 -11 10 -5 0
-7 -4 -4 -10z"/>
<path d="M4127 7107 c-3 -9 1 -21 9 -27 11 -10 14 -10 14 1 0 8 -4 20 -9 27
-7 11 -9 11 -14 -1z"/>
<path d="M6001 6654 c0 -11 3 -14 6 -6 3 7 2 16 -1 19 -3 4 -6 -2 -5 -13z"/>
<path d="M4931 6648 c-55 -9 -131 -40 -131 -52 0 -4 7 -6 15 -3 17 7 30 -9 15
-18 -5 -3 -10 -26 -10 -50 0 -24 -5 -47 -10 -50 -17 -11 21 -65 76 -106 28
-22 54 -39 59 -39 4 0 -10 13 -32 29 -56 41 -73 68 -73 120 0 37 5 49 36 77
40 38 87 46 99 17 4 -13 -2 -25 -21 -40 -23 -18 -28 -29 -26 -60 3 -47 29 -98
58 -113 47 -25 136 35 158 108 13 40 66 25 66 -20 0 -35 -13 -63 -47 -100
l-25 -26 43 9 c52 12 48 8 64 56 8 24 10 44 4 55 -12 23 -12 81 1 73 6 -3 10
1 10 11 0 24 -66 83 -119 106 -50 21 -143 29 -210 16z"/>
<path d="M6119 6607 c-72 -36 -146 -93 -175 -137 -29 -43 -28 -33 -25 -243 1
-48 -1 -92 -4 -97 -3 -5 -1 -11 5 -15 5 -3 10 -3 11 2 1 4 2 22 4 38 3 41 4
42 15 25 9 -13 10 -13 10 1 0 29 25 49 91 72 36 13 76 34 88 46 11 11 27 21
35 21 8 0 28 21 45 48 41 63 62 84 83 79 11 -3 15 0 11 9 -3 9 2 14 15 14 23
0 85 49 64 50 -8 0 -27 14 -43 31 -25 26 -26 31 -9 26 11 -3 20 -1 20 4 0 6
-18 9 -40 7 -30 -1 -45 3 -60 20 -27 29 -81 28 -141 -1z"/>
<path d="M6374 6475 c-10 -8 -14 -15 -8 -15 6 0 17 7 24 15 16 19 9 19 -16 0z"/>
<path d="M5871 6444 c0 -11 3 -14 6 -6 3 7 2 16 -1 19 -3 4 -6 -2 -5 -13z"/>
<path d="M6380 6250 c-12 -8 -12 -10 -1 -10 11 0 10 -5 -4 -20 -14 -15 -16
-23 -7 -32 20 -20 42 -1 42 37 0 37 -5 41 -30 25z"/>
<path d="M6436 6211 c-4 -5 -3 -16 0 -25 4 -9 1 -16 -6 -16 -8 0 -10 -8 -7
-22 l6 -23 -16 23 c-15 21 -43 31 -43 14 0 -5 -10 -14 -22 -20 -15 -7 -17 -11
-8 -11 13 -1 13 -2 0 -11 -13 -8 -12 -10 3 -10 9 0 17 -4 17 -10 0 -5 -4 -10
-10 -10 -14 0 -12 -27 3 -33 7 -3 4 -6 -7 -6 -12 -1 -16 -6 -12 -16 3 -8 0
-15 -7 -15 -8 0 -7 -4 3 -10 12 -7 10 -11 -10 -19 -14 -5 -20 -10 -15 -11 6 0
3 -5 -5 -10 -13 -8 -12 -10 3 -10 26 0 16 -22 -19 -40 -34 -18 -45 -30 -37
-44 3 -5 1 -6 -5 -3 -5 4 -17 4 -26 1 -12 -5 -13 -10 -5 -25 7 -14 6 -19 -2
-19 -7 0 -10 -3 -6 -6 3 -3 43 4 88 15 47 12 115 21 157 21 77 0 101 12 102
50 0 13 -2 13 -9 1 -7 -11 -11 -5 -16 22 -4 20 -12 37 -17 37 -7 0 -7 4 0 13
14 16 10 66 -5 72 -17 6 -6 33 15 38 15 4 15 5 0 6 -16 1 -23 19 -19 45 1 5
-5 16 -14 26 -8 9 -12 19 -9 23 3 3 -3 10 -15 16 -11 7 -22 7 -25 2z"/>
<path d="M6670 6140 c0 -5 5 -10 10 -10 6 0 10 5 10 10 0 6 -4 10 -10 10 -5 0
-10 -4 -10 -10z"/>
<path d="M6540 6109 c0 -5 5 -7 10 -4 6 3 10 8 10 11 0 2 -4 4 -10 4 -5 0 -10
-5 -10 -11z"/>
<path d="M7057 6086 c-4 -15 -6 -31 -2 -34 10 -10 16 6 13 35 l-3 28 -8 -29z"/>
<path d="M6646 6054 c-4 -9 -4 -19 -1 -22 2 -3 7 3 11 12 4 9 4 19 1 22 -2 3
-7 -3 -11 -12z"/>
<path d="M5916 6047 c3 -10 9 -15 12 -12 3 3 0 11 -7 18 -10 9 -11 8 -5 -6z"/>
<path d="M7346 6017 c-3 -13 -16 -40 -30 -59 -23 -35 -24 -48 -3 -48 5 0 7 6
4 13 -4 10 2 13 19 9 30 -5 45 29 33 72 -11 39 -16 41 -23 13z"/>
<path d="M7038 6003 c-16 -29 -34 -91 -30 -107 2 -4 -3 -15 -10 -23 -9 -12 -9
-16 2 -23 17 -11 35 14 26 36 -7 19 21 31 37 15 8 -8 8 -11 0 -11 -14 0 -23
-34 -12 -51 13 -21 17 -8 25 65 6 58 5 68 -7 61 -12 -8 -12 -6 -1 8 8 9 11 21
7 27 -3 5 0 10 7 10 9 0 9 3 -2 10 -22 14 -24 13 -42 -17z"/>
<path d="M5953 5970 c6 -56 14 -59 14 -5 0 25 -4 45 -9 45 -5 0 -7 -18 -5 -40z"/>
<path d="M3424 5988 c-4 -6 7 -21 25 -35 39 -31 39 -43 0 -43 -27 0 -30 -2
-19 -15 7 -8 16 -12 21 -9 5 3 15 -9 23 -27 8 -19 16 -27 20 -20 4 6 12 8 18
5 7 -5 9 -2 5 8 -3 9 -1 20 5 26 8 8 8 15 0 25 -7 8 -9 17 -5 21 9 9 -44 63
-68 69 -10 3 -22 1 -25 -5z"/>
<path d="M7193 5942 c-1 -11 5 -18 17 -18 10 0 17 7 15 16 -3 22 -30 24 -32 2z"/>
<path d="M5965 5900 c3 -5 8 -10 11 -10 2 0 4 5 4 10 0 6 -5 10 -11 10 -5 0
-7 -4 -4 -10z"/>
<path d="M7224 5902 c-16 -10 -36 -52 -26 -52 12 0 36 28 38 46 3 16 3 16 -12
6z"/>
<path d="M7314 5882 c-4 -12 -10 -22 -15 -22 -5 0 -6 -7 -2 -16 4 -11 1 -15
-13 -12 -11 2 -20 -4 -22 -14 -6 -30 23 -20 43 15 10 17 23 35 29 39 8 5 7 11
-2 20 -10 10 -14 8 -18 -10z"/>
<path d="M6270 5824 c-98 -25 -122 -41 -113 -74 6 -22 17 -27 80 -35 40 -6 54
-3 83 17 31 21 89 92 90 111 0 12 -42 7 -140 -19z"/>
<path d="M3455 5820 c3 -5 8 -10 11 -10 2 0 4 5 4 10 0 6 -5 10 -11 10 -5 0
-7 -4 -4 -10z"/>
<path d="M2997 5783 c-4 -3 -7 -16 -6 -27 0 -19 1 -19 10 3 10 24 8 36 -4 24z"/>
<path d="M5880 5780 c-1 -15 -52 -41 -63 -32 -26 20 -99 33 -118 21 -11 -6
-10 -11 2 -26 25 -32 49 -80 49 -102 0 -12 5 -21 11 -21 17 0 1 -18 -31 -33
-26 -13 -29 -13 -36 2 -4 11 -8 12 -11 4 -3 -7 6 -25 19 -41 l23 -28 46 22
c70 34 185 154 147 154 -7 0 -2 7 10 16 24 16 29 48 10 60 -14 9 -58 12 -58 4z
m20 -84 c0 -2 -8 -10 -17 -17 -16 -13 -17 -12 -4 4 13 16 21 21 21 13z m-66
-76 c-15 -22 -30 -37 -34 -35 -7 4 47 75 57 75 2 0 -9 -18 -23 -40z"/>
<path d="M6840 5742 c0 -4 5 -13 12 -20 16 -16 28 -15 28 2 0 8 -7 17 -16 20
-21 8 -24 8 -24 -2z"/>
<path d="M5629 5690 c38 -35 60 -49 70 -44 9 4 19 6 24 6 4 -1 7 7 7 18 0 25
-29 40 -80 40 -27 0 -43 5 -46 15 -4 8 -11 15 -17 15 -7 0 13 -23 42 -50z"/>
<path d="M7047 5719 c-10 -39 13 -51 46 -26 19 14 11 31 -19 41 -17 5 -23 2
-27 -15z"/>
<path d="M3200 5698 c0 -30 41 -98 48 -79 2 7 0 16 -6 20 -6 3 -13 23 -17 44
-8 40 -25 51 -25 15z"/>
<path d="M6130 5690 c0 -5 14 -7 33 -3 45 8 47 13 4 13 -20 0 -37 -4 -37 -10z"/>
<path d="M3313 5635 c0 -8 4 -12 9 -9 5 3 6 10 3 15 -9 13 -12 11 -12 -6z"/>
<path d="M5686 5465 c-19 -14 -16 -45 5 -45 6 0 9 7 6 14 -4 10 -1 13 8 10 10
-4 12 0 8 15 -3 12 -6 21 -7 21 0 0 -9 -7 -20 -15z"/>
</g>
</svg>
